Coordinates
version=1
nRows=29
nColumns=24
inDegrees=yes

Units are S.I. units (second, meters, Newtons, ...)
Angles are in degrees.

endheader
time	pelvis_tilt	pelvis_list	pelvis_rotation	pelvis_tx	pelvis_ty	pelvis_tz	hip_flexion_r	hip_adduction_r	hip_rotation_r	knee_angle_r	ankle_angle_r	subtalar_angle_r	mtp_angle_r	hip_flexion_l	hip_adduction_l	hip_rotation_l	knee_angle_l	ankle_angle_l	subtalar_angle_l	mtp_angle_l	lumbar_extension	lumbar_bending	lumbar_rotation
      5.06000000	      6.93653610	     -1.17257123	     -0.07391388	      1.39128220	      0.90513000	     -0.13021461	    -31.18536694	      6.58878362	     -0.69111423	      1.70521853	     16.54976475	      3.98371335	      0.00000000	     10.00273649	      0.96039002	     13.59765996	      7.56331598	      1.93848988	    -19.64253487	      0.00000000	    -28.73117771	      4.44294366	      1.81736190
      5.07000000	      7.26049890	     -1.07720515	     -0.13017205	      1.40551117	      0.90289825	     -0.13050973	    -32.11108915	      6.39897564	     -0.87298602	      1.02909923	     16.38279128	      4.28793536	      0.00000000	      9.90383052	      1.25920941	     13.46744244	      7.89479178	      2.11815785	    -19.82139172	      0.00000000	    -29.19529086	      4.25226732	      1.70160150
      5.08000000	      7.52698740	     -0.88071919	     -0.12056048	      1.41996359	      0.90076730	     -0.13105102	    -32.76218459	      6.11758701	     -1.75626115	     -0.01461182	     16.51517378	      5.50949266	      0.00000000	     10.09634476	      1.81312811	     13.29524127	      7.28262179	      2.53461346	    -19.85614714	      0.00000000	    -29.57829525	      3.98679351	      1.58107614
      5.09000000	      7.79948131	     -0.58596852	     -0.04734270	      1.43471480	      0.89873324	     -0.13180422	    -33.36564644	      5.73910326	     -2.55664557	     -1.16774562	     16.40651192	      6.47584516	      0.00000000	     10.45031364	      2.57969201	     13.15369166	      5.85473348	      3.13236140	    -19.68944793	      0.00000000	    -29.92386645	      3.64834364	      1.45539216
      5.10000000	      7.87133236	     -0.25115060	      0.10420073	      1.44979887	      0.89656003	     -0.13279543	    -33.58941497	      5.31447775	     -3.80131055	     -2.61828872	     16.34723323	      7.91922127	      0.00000000	     11.21305021	      3.50105255	     12.71148656	      3.63435475	      3.99901030	    -18.82865898	      0.00000000	    -29.98300199	      3.31476838	      1.28638929
      5.11000000	      7.94319729	      0.15194823	      0.26243364	      1.46524259	      0.89447206	     -0.13386206	    -33.70239529	      4.76798797	     -5.30387262	     -4.27559525	     16.17581715	      9.67614385	      0.00000000	     12.10893641	      4.53515800	     11.66029743	      0.82013382	      5.13480382	    -17.00659871	      0.00000000	    -29.98831446	      2.88883653	      1.21480465
      5.12000000	      7.95470584	      0.53953633	      0.42814930	      1.48095622	      0.89239162	     -0.13495887	    -33.61324781	      4.16869871	     -6.90249328	     -6.17255126	     15.79258567	     11.53691406	      0.00000000	     13.21848295	      5.51328104	      9.92108488	     -2.47854032	      6.48260862	    -14.16183907	      0.00000000	    -29.88756512	      2.46852991	      1.20560060
      5.13000000	      7.92467469	      0.93478604	      0.60035034	      1.49695571	      0.89031579	     -0.13600280	    -33.38543655	      3.51089900	     -8.34322234	     -8.22420953	     15.02861920	     13.14268009	      0.00000000	     14.43691248	      6.37280023	      7.91919149	     -6.01690958	      7.81520591	    -10.91593902	      0.00000000	    -29.68980302	      2.00354286	      1.23491905
      5.14000000	      7.87506085	      1.29667896	      0.76098998	      1.51311992	      0.88834136	     -0.13696674	    -32.99314119	      2.83024698	     -9.50186366	    -10.48100794	     13.78475288	     14.38008562	      0.00000000	     15.65069434	      7.05332047	      6.10658772	     -9.55947339	      8.74793361	     -8.08997554	      0.00000000	    -29.44297426	      1.54048226	      1.33157225
      5.15000000	      7.83309797	      1.62818311	      0.91200280	      1.52933070	      0.88656881	     -0.13787262	    -32.42273352	      2.13351073	    -10.33420387	    -12.97920510	     12.03879381	     15.22727917	      0.00000000	     16.78703576	      7.60005895	      4.70297292	    -12.99827988	      9.38366072	     -5.97443044	      0.00000000	    -29.20089995	      1.08880043	      1.47267789
      5.16000000	      7.95059904	      2.01416120	      1.06205529	      1.54545562	      0.88523981	     -0.13866049	    -31.81690354	      1.37743975	    -10.83943340	    -15.71975909	      9.83006158	     15.59388577	      0.00000000	     17.66736571	      8.11619199	      3.50668312	    -16.28239748	      9.95850785	     -4.31318282	      0.00000000	    -29.17070367	      0.55281155	      1.53479428
      5.17000000	      8.17964293	      2.38698735	      1.19827448	      1.56137936	      0.88432826	     -0.13933315	    -31.05744820	      0.62563260	    -11.00527422	    -18.78094650	      7.23144163	     15.55419044	      0.00000000	     18.31058690	      8.56760724	      2.56116407	    -19.37127727	     10.65057920	     -3.11317018	      0.00000000	    -29.31455595	      0.02419416	      1.57252269
      5.18000000	      8.47880901	      2.75267399	      1.33426263	      1.57704654	      0.88378588	     -0.13991675	    -30.06724401	     -0.12357864	    -10.96221887	    -22.20127358	      4.41163217	     15.24378492	      0.00000000	     18.69197228	      8.99665028	      1.86696947	    -22.17013843	     11.51326942	     -2.35791262	      0.00000000	    -29.58550356	     -0.49047356	      1.54028611
      5.19000000	      8.80014913	      3.11459210	      1.44424856	      1.59238854	      0.88355788	     -0.14041583	    -28.76962237	     -0.89762985	    -10.79843466	    -26.01471519	      1.61360661	     14.78781233	      0.00000000	     18.79812760	      9.42027970	      1.35749074	    -24.58169540	     12.54443762	     -1.92459739	      0.00000000	    -29.93237411	     -0.99227807	      1.44494942
      5.20000000	      9.07062639	      3.49449788	      1.50075081	      1.60738146	      0.88357019	     -0.14083635	    -27.09869139	     -1.74129734	    -10.57640741	    -30.19440877	     -0.92752650	     14.25404583	      0.00000000	     18.64032404	      9.87113183	      1.00140481	    -26.49295870	     13.68770476	     -1.74305655	      0.00000000	    -30.26645748	     -1.50539924	      1.28039323
      5.21000000	      9.22717110	      3.91003734	      1.48688792	      1.62200585	      0.88377594	     -0.14118535	    -25.02821135	     -2.67959624	    -10.31940206	    -34.65693129	     -3.00972903	     13.63146375	      0.00000000	     18.26333958	     10.36658388	      0.74649453	    -27.84766944	     14.86952059	     -1.70248635	      0.00000000	    -30.51382141	     -2.05030364	      1.05598530
      5.22000000	      9.22512874	      4.39317374	      1.37615140	      1.63629259	      0.88417705	     -0.14142952	    -22.57183224	     -3.72694226	     -9.95894944	    -39.27254232	     -4.46095397	     12.88076222	      0.00000000	     17.69957993	     10.93709974	      0.57852513	    -28.59395503	     16.01457464	     -1.78920388	      0.00000000	    -30.61263538	     -2.67785684	      0.72674077
      5.23000000	      9.05427146	      4.90375605	      1.19302779	      1.65025428	      0.88480483	     -0.14158011	    -19.78724286	     -4.81091102	     -9.50374556	    -43.87667768	     -5.21943982	     11.99795931	      0.00000000	     17.02550304	     11.53493117	      0.47889594	    -28.82598952	     17.07612973	     -1.89724230	      0.00000000	    -30.54646710	     -3.34339816	      0.36566461
      5.24000000	      8.77241885	      5.41671356	      0.94945673	      1.66394606	      0.88580144	     -0.14163531	    -16.80704920	     -5.85941151	     -8.92224083	    -48.29359343	     -5.24733784	     10.99281670	      0.00000000	     16.21701153	     12.12834269	      0.44799700	    -28.59335048	     17.99093793	     -2.03962417	      0.00000000	    -30.36738558	     -4.00851702	     -0.05187327
      5.25000000	      8.41490152	      5.86871568	      0.69941261	      1.67741112	      0.88725321	     -0.14160871	    -13.72644183	     -6.75179632	     -8.23518160	    -52.37990146	     -4.58589655	      9.92422313	      0.00000000	     15.29425173	     12.65468533	      0.53027005	    -28.00175093	     18.75176652	     -2.18727525	      0.00000000	    -30.10986357	     -4.59909557	     -0.51234671
      5.26000000	      8.01939129	      6.20252363	      0.49053132	      1.69069442	      0.88921845	     -0.14156319	    -10.63430308	     -7.40549916	     -7.50420660	    -56.03341032	     -3.31263480	      8.84893724	      0.00000000	     14.25732250	     13.06008695	      0.76882981	    -27.13307011	     19.32114772	     -2.32756465	      0.00000000	    -29.80942947	     -5.02860868	     -0.98401532
      5.27000000	      7.63448103	      6.38138173	      0.33974345	      1.70382330	      0.89171395	     -0.14151853	     -7.61138528	     -7.77945033	     -6.77808121	    -59.20031864	     -1.60414893	      7.84932427	      0.00000000	     13.09660675	     13.29925830	      1.13088507	    -26.06955556	     19.72994460	     -2.50914172	      0.00000000	    -29.52047181	     -5.25098221	     -1.49789654
      5.28000000	      7.23518958	      6.37379935	      0.30232169	      1.71683867	      0.89464104	     -0.14156205	     -4.66830883	     -7.84728380	     -6.14439917	    -61.85011831	      0.40614723	      6.93754179	      0.00000000	     11.84660341	     13.35421853	      1.70355485	    -24.84344141	     19.95058512	     -2.73242188	      0.00000000	    -29.20720571	     -5.21240643	     -2.01719753
      5.29000000	      6.84303066	      6.21761389	      0.34730831	      1.72978845	      0.89790749	     -0.14166977	     -1.83616984	     -7.68025043	     -5.61274534	    -63.99653384	      2.51416900	      6.12648663	      0.00000000	     10.48574978	     13.24597917	      2.41007746	    -23.44805517	     20.02075471	     -2.99259984	      0.00000000	    -28.88980120	     -4.96833166	     -2.55886854
      5.30000000	      6.41446336	      5.84977520	      0.51392850	      1.74264328	      0.90132318	     -0.14193128	      0.91847910	     -7.22595076	     -5.22909376	    -65.65317482	      4.56992610	      5.41045312	      0.00000000	      9.09417063	     12.92793349	      3.35937552	    -21.94838231	     19.95485847	     -3.43241845	      0.00000000	    -28.53078046	     -4.42693495	     -3.13545977
      5.31000000	      5.97622619	      5.42858467	      0.72427505	      1.75551715	      0.90478920	     -0.14225287	      3.57043395	     -6.70175500	     -4.96519771	    -66.86247161	      6.43647895	      4.66705396	      0.00000000	      7.59447266	     12.54462682	      4.47268125	    -20.22372596	     19.57185547	     -4.13982786	      0.00000000	    -28.12940520	     -3.80793254	     -3.71736962
      5.32000000	      5.54437254	      4.91470027	      0.95026392	      1.76836174	      0.90816104	     -0.14260863	      6.11669193	     -6.06551053	     -4.77418755	    -67.66846126	      8.07024055	      3.95980830	      0.00000000	      6.02782726	     12.04890999	      5.73128219	    -18.37002812	     19.06433717	     -5.10870943	      0.00000000	    -27.72782595	     -3.07279980	     -4.32642509
      5.33000000	      5.16760687	      4.32981462	      1.15362857	      1.78121308	      0.91139161	     -0.14294703	      8.50036825	     -5.35479783	     -4.63744486	    -68.09054484	      9.46474358	      3.30696614	      0.00000000	      4.34723361	     11.45277434	      7.10365815	    -16.38333340	     18.38349679	     -6.37728885	      0.00000000	    -27.37695568	     -2.26112302	     -4.86808663
      5.34000000	      4.74447557	      3.73763990	      1.35196814	      1.79404537	      0.91421214	     -0.14326794	     10.84870293	     -4.65735122	     -4.56425616	    -68.19771134	     10.64382586	      2.68034479	      0.00000000	      2.73079969	     10.81508541	      8.47279298	    -14.37362469	     17.56558603	     -7.79818166	      0.00000000	    -26.96089634	     -1.44899220	     -5.42254968
